<!DOCTYPE svg PUBLIC "-//W3C//DTD SVG 1.1//EN" "http://www.w3.org/Graphics/SVG/1.1/DTD/svg11.dtd">
<!-- Uploaded to: SVG Repo, www.svgrepo.com, Transformed by: SVG Repo Mixer Tools -->
<svg width="256px" height="256px" viewBox="-3.6 -3.6 31.20 31.20" xmlns="http://www.w3.org/2000/svg" fill="#ffffff" style="--noir-inline-fill: #e8e6e3; --noir-inline-color: #e8e6e3;" stroke="#ffffff" stroke-width="0.00024000000000000003" data-noir-inline-color="" data-noir-inline-fill="" transform="matrix(1, 0, 0, 1, 0, 0)rotate(0)">
<g id="SVGRepo_bgCarrier" stroke-width="0" transform="translate(0,0), scale(1)">
<rect x="-3.6" y="-3.6" width="31.20" height="31.20" rx="0" fill="#77bb41" strokewidth="0"/>
</g>
<g id="SVGRepo_tracerCarrier" stroke-linecap="round" stroke-linejoin="round" stroke="#CCCCCC" stroke-width="0.144" data-noir-inline-color="" style="--noir-inline-color: #c8c3bc;"/>
<g id="SVGRepo_iconCarrier"> <path d="M17,8C8,10,5.9,16.17,3.82,21.34L5.71,22l1-2.3A4.49,4.49,0,0,0,8,20C19,20,22,3,22,3,21,5,14,5.25,9,6.25S2,11.5,2,13.5a6.22,6.22,0,0,0,1.75,3.75C7,8,17,8,17,8Z"/> <rect width="24" height="24" fill="none"/> </g>
</svg>